<svg id="logo-heinemann"viewBox="0 0 254.42 35"><defs><style>.d{fill:#fff;}.e{fill:#7c28bd;}.f{fill:#70e61c;}</style></defs><g id="c"><polygon class="e" points="237.86 13.78 237.86 20.5 237.86 34.66 230.49 34.66 230.49 10.73 230.49 10.59 237.86 10.59 237.86 13.78"/><path class="d" d="m26.22,4.38v30.28h-7.38v-12.46H7.38v12.46H0V4.38h7.38v11.86h11.47V4.38h7.38Z"/><path class="d" d="m54.09,24.39h-16.69c.11,1.5.6,2.64,1.44,3.43.85.79,1.89,1.19,3.13,1.19,1.84,0,3.12-.78,3.84-2.33h7.85c-.4,1.58-1.13,3.01-2.18,4.27-1.05,1.27-2.37,2.26-3.95,2.98-1.58.72-3.35,1.08-5.31,1.08-2.36,0-4.46-.5-6.3-1.51-1.84-1.01-3.28-2.44-4.31-4.31-1.04-1.87-1.55-4.05-1.55-6.56s.51-4.69,1.53-6.56c1.02-1.87,2.45-3.31,4.29-4.31,1.84-1.01,3.95-1.51,6.34-1.51s4.4.49,6.21,1.47c1.81.98,3.23,2.37,4.25,4.18,1.02,1.81,1.53,3.92,1.53,6.34,0,.69-.04,1.41-.13,2.16Zm-7.42-4.1c0-1.26-.43-2.27-1.29-3.02-.86-.75-1.94-1.12-3.23-1.12s-2.28.36-3.13,1.08c-.85.72-1.37,1.74-1.57,3.06h9.23Z"/><rect class="d" x="58.1" y="10.59" width="7.38" height="24.07"/><rect class="e" x="58.1" width="7.42" height="8.14"/><path class="d" d="m92.23,13.07c1.68,1.83,2.52,4.33,2.52,7.53v14.06h-7.33v-13.07c0-1.61-.42-2.86-1.25-3.75-.83-.89-1.96-1.34-3.36-1.34s-2.53.45-3.36,1.34c-.83.89-1.25,2.14-1.25,3.75v13.07h-7.38V10.59h7.38v3.19c.75-1.06,1.75-1.9,3.02-2.52,1.26-.62,2.69-.93,4.27-.93,2.82,0,5.07.91,6.75,2.74Z"/><path class="d" d="m122.45,24.39h-16.69c.11,1.5.6,2.64,1.44,3.43.85.79,1.89,1.19,3.13,1.19,1.84,0,3.12-.78,3.84-2.33h7.85c-.4,1.58-1.13,3.01-2.18,4.27-1.05,1.27-2.37,2.26-3.95,2.98-1.58.72-3.35,1.08-5.31,1.08-2.36,0-4.46-.5-6.3-1.51-1.84-1.01-3.28-2.44-4.31-4.31-1.04-1.87-1.55-4.05-1.55-6.56s.51-4.69,1.53-6.56c1.02-1.87,2.45-3.31,4.29-4.31,1.84-1.01,3.95-1.51,6.34-1.51s4.4.49,6.21,1.47c1.81.98,3.23,2.37,4.25,4.18,1.02,1.81,1.53,3.92,1.53,6.34,0,.69-.04,1.41-.13,2.16Zm-7.42-4.1c0-1.26-.43-2.27-1.29-3.02-.86-.75-1.94-1.12-3.23-1.12s-2.28.36-3.13,1.08c-.85.72-1.37,1.74-1.57,3.06h9.23Z"/><path class="d" d="m164.3,13.05c1.77,1.81,2.65,4.33,2.65,7.55v14.06h-7.33v-13.07c0-1.55-.41-2.75-1.23-3.6-.82-.85-1.95-1.27-3.39-1.27s-2.57.42-3.39,1.27c-.82.85-1.23,2.05-1.23,3.6v13.07h-7.33v-13.07c0-1.55-.41-2.75-1.23-3.6-.82-.85-1.95-1.27-3.39-1.27s-2.57.42-3.39,1.27c-.82.85-1.23,2.05-1.23,3.6v13.07h-7.38V10.59h7.38v3.02c.75-1.01,1.73-1.8,2.93-2.39,1.21-.59,2.57-.88,4.1-.88,1.81,0,3.43.39,4.85,1.16,1.42.78,2.54,1.88,3.34,3.32.83-1.32,1.97-2.4,3.41-3.23,1.44-.83,3-1.25,4.7-1.25,2.99,0,5.37.91,7.14,2.72Z"/><path class="d" d="m172.07,16.07c.93-1.87,2.21-3.31,3.82-4.31,1.61-1.01,3.41-1.51,5.39-1.51,1.7,0,3.18.35,4.46,1.04,1.28.69,2.26,1.6,2.95,2.72v-3.41h7.38v24.07h-7.38v-3.41c-.72,1.12-1.72,2.03-3,2.72-1.28.69-2.77,1.04-4.46,1.04-1.96,0-3.74-.51-5.35-1.53-1.61-1.02-2.88-2.47-3.82-4.36-.93-1.88-1.4-4.06-1.4-6.53s.47-4.64,1.4-6.51Zm15.1,2.2c-1.02-1.06-2.26-1.6-3.73-1.6s-2.71.52-3.73,1.57c-1.02,1.05-1.53,2.49-1.53,4.33s.51,3.3,1.53,4.38c1.02,1.08,2.26,1.62,3.73,1.62s2.71-.53,3.73-1.6c1.02-1.06,1.53-2.52,1.53-4.36s-.51-3.29-1.53-4.36Z"/><path class="d" d="m222.83,13.07c1.68,1.83,2.52,4.33,2.52,7.53v14.06h-7.33v-13.07c0-1.61-.42-2.86-1.25-3.75-.83-.89-1.96-1.34-3.36-1.34s-2.53.45-3.36,1.34c-.83.89-1.25,2.14-1.25,3.75v13.07h-7.38V10.59h7.38v3.19c.75-1.06,1.75-1.9,3.02-2.52,1.27-.62,2.69-.93,4.27-.93,2.82,0,5.07.91,6.75,2.74Z"/><path class="f" d="m251.9,13.07c1.68,1.83,2.52,4.33,2.52,7.53v14.06h-7.33v-13.07c0-1.61-.42-2.86-1.25-3.75-.83-.89-1.96-1.34-3.36-1.34s-2.53.45-3.36,1.34c-.83.89-1.25,2.14-1.25,3.75v13.07h-7.38c-.03-1.42,0-3.47.35-5.9.34-2.37.86-5.86,2.89-9.77.72-1.39,1.91-3.35,3.8-5.43.63-.64,1.74-1.6,3.35-2.31,1.97-.87,3.68-.93,4.27-.93,2.82,0,5.07.91,6.75,2.74Z"/></g></svg>