<svg width="50" height="50" viewBox="0 0 50 50" fill="none" xmlns="http://www.w3.org/2000/svg">
<path d="M4.00004 23.5005H7.511C10.1386 23.5005 12.2995 25.7742 12.3368 28.4117L12.3369 28.4188C12.3418 29.1076 12.2104 29.7906 11.9503 30.4284C11.6902 31.0662 11.3067 31.6463 10.8216 32.1352L4.00004 23.5005ZM4.00004 23.5005L4.00005 15.5268L4.00003 15.5229C3.99767 14.9269 4.11637 14.3367 4.34893 13.788C4.5815 13.2393 4.92307 12.7436 5.35296 12.3309L5.35463 12.3292C6.22051 11.494 7.37843 11.0302 8.58147 11.0365V11.0365H8.58676H14.9389H15.9389V10.0365V8.58211C15.9389 7.84082 16.0865 7.10694 16.3732 6.42333C16.6599 5.73971 17.0799 5.12004 17.6086 4.60048C18.1374 4.08092 18.7643 3.67189 19.4529 3.39724C20.1414 3.1226 20.8778 2.98785 21.6189 3.00086L21.619 3.00086C24.6265 3.0534 27.1011 5.58604 27.1011 8.66348V10.0365V11.0365H28.1011H34.4532V11.0366L34.4639 11.0365C35.0566 11.0301 35.6446 11.1422 36.1934 11.366C36.7422 11.5899 37.2408 11.9211 37.6599 12.3402C38.079 12.7593 38.4102 13.2579 38.6341 13.8067C38.858 14.3555 38.97 14.9435 38.9636 15.5362L38.9636 15.5362V15.5469V21.899V22.899H39.9636H41.3356C44.4822 22.899 46.9991 25.3885 46.9991 28.3917C46.9991 31.5294 44.4822 34.0612 41.418 34.0612H39.9636H38.9636V35.0612V41.4133C38.9636 43.9546 36.9264 46 34.4532 46H26.4996V42.4101V42.4087H25.4996M4.00004 23.5005L21.453 37.9645M25.4996 42.4087C25.501 41.9841 25.4163 41.5636 25.2508 41.1726C25.0852 40.7816 24.8422 40.4282 24.5363 40.1336M25.4996 42.4087V46V42.4087ZM24.5363 40.1336L25.2383 39.4214C25.237 39.4201 25.2356 39.4188 25.2342 39.4174C25.2328 39.4161 25.2314 39.4147 25.2299 39.4133L24.5363 40.1336ZM24.5363 40.1336C23.7659 39.3743 22.645 38.9474 21.4657 38.9645M21.4657 38.9645L21.4563 37.9645C21.4552 37.9645 21.4541 37.9645 21.453 37.9645M21.4657 38.9645C20.4168 38.9743 19.4049 39.3538 18.6081 40.0362M21.4657 38.9645L21.4513 37.9646C21.4518 37.9646 21.4524 37.9645 21.453 37.9645M21.453 37.9645L18.6081 40.0362M18.6081 40.0362C18.0858 40.4982 17.464 41.2978 17.464 42.4891V46L18.6081 40.0362ZM34.4532 47H26.4996L13.9389 10.0365H14.9389V9.03655V8.58211C14.9389 7.70802 15.113 6.84268 15.451 6.03659C15.789 5.23051 16.2843 4.49983 16.9077 3.8872C17.5312 3.27456 18.2705 2.79225 19.0824 2.46841C19.8943 2.14456 20.7625 1.98567 21.6365 2.00101C25.2013 2.06329 28.1011 5.05251 28.1011 8.66348V9.03655V10.0365H29.1011H34.4532C35.179 10.0287 35.899 10.166 36.5711 10.4401C37.2432 10.7143 37.8538 11.1199 38.367 11.6331C38.8802 12.1464 39.2858 12.7569 39.56 13.429C39.8342 14.1011 39.9714 14.8211 39.9636 15.5469V20.899V21.899H40.9636H41.3356C45.0099 21.899 47.9991 24.8119 47.9991 28.3917C47.9991 32.069 45.0471 35.0612 41.418 35.0612H40.9636H39.9636V36.0612V41.4133C39.9636 44.4939 37.4916 47 34.4532 47Z" stroke="#70E61C" stroke-width="2"/>
</svg>
